<mxfile host="app.diagrams.net" agent="Mozilla/5.0 (Windows NT 10.0; Win64; x64) AppleWebKit/537.36 (KHTML, like Gecko) Chrome/133.0.0.0 Safari/537.36" version="26.0.11">
  <diagram id="R2lEEEUBdFMjLlhIrx00" name="Page-1">
    <mxGraphModel dx="794" dy="1534" grid="1" gridSize="10" guides="1" tooltips="1" connect="1" arrows="1" fold="1" page="1" pageScale="1" pageWidth="850" pageHeight="1100" math="0" shadow="0" extFonts="Permanent Marker^https://fonts.googleapis.com/css?family=Permanent+Marker">
      <root>
        <mxCell id="0" />
        <mxCell id="1" parent="0" />
        <mxCell id="zQuLuvSVzzjiVQ9KDu7E-1" value="CONSUMERS" style="rounded=1;whiteSpace=wrap;html=1;fillColor=#d5e8d4;strokeColor=#82b366;" vertex="1" parent="1">
          <mxGeometry x="100" y="10" width="120" height="20" as="geometry" />
        </mxCell>
        <mxCell id="zQuLuvSVzzjiVQ9KDu7E-2" value="USAGE" style="rounded=1;whiteSpace=wrap;html=1;fillColor=#d5e8d4;strokeColor=#82b366;" vertex="1" parent="1">
          <mxGeometry x="570" width="120" height="60" as="geometry" />
        </mxCell>
        <mxCell id="zQuLuvSVzzjiVQ9KDu7E-17" value="" style="edgeStyle=orthogonalEdgeStyle;rounded=0;orthogonalLoop=1;jettySize=auto;html=1;" edge="1" parent="1" source="zQuLuvSVzzjiVQ9KDu7E-3" target="zQuLuvSVzzjiVQ9KDu7E-15">
          <mxGeometry relative="1" as="geometry" />
        </mxCell>
        <mxCell id="zQuLuvSVzzjiVQ9KDu7E-19" value="" style="edgeStyle=orthogonalEdgeStyle;rounded=0;orthogonalLoop=1;jettySize=auto;html=1;" edge="1" parent="1" source="zQuLuvSVzzjiVQ9KDu7E-3" target="zQuLuvSVzzjiVQ9KDu7E-2">
          <mxGeometry relative="1" as="geometry" />
        </mxCell>
        <mxCell id="zQuLuvSVzzjiVQ9KDu7E-3" value="ENERGY" style="rounded=1;whiteSpace=wrap;html=1;fillColor=#d5e8d4;strokeColor=#82b366;" vertex="1" parent="1">
          <mxGeometry x="410" y="-10" width="120" height="60" as="geometry" />
        </mxCell>
        <mxCell id="zQuLuvSVzzjiVQ9KDu7E-18" value="" style="edgeStyle=orthogonalEdgeStyle;rounded=0;orthogonalLoop=1;jettySize=auto;html=1;" edge="1" parent="1" source="zQuLuvSVzzjiVQ9KDu7E-4" target="zQuLuvSVzzjiVQ9KDu7E-7">
          <mxGeometry relative="1" as="geometry" />
        </mxCell>
        <mxCell id="zQuLuvSVzzjiVQ9KDu7E-30" style="edgeStyle=orthogonalEdgeStyle;rounded=0;orthogonalLoop=1;jettySize=auto;html=1;exitX=1;exitY=0.5;exitDx=0;exitDy=0;entryX=0.5;entryY=1;entryDx=0;entryDy=0;" edge="1" parent="1" source="zQuLuvSVzzjiVQ9KDu7E-4" target="zQuLuvSVzzjiVQ9KDu7E-20">
          <mxGeometry relative="1" as="geometry">
            <Array as="points">
              <mxPoint x="480" y="180" />
              <mxPoint x="480" y="130" />
            </Array>
          </mxGeometry>
        </mxCell>
        <mxCell id="zQuLuvSVzzjiVQ9KDu7E-4" value="ENERGY RELATIONSHIP" style="rounded=1;whiteSpace=wrap;html=1;" vertex="1" parent="1">
          <mxGeometry x="340" y="150" width="120" height="60" as="geometry" />
        </mxCell>
        <mxCell id="zQuLuvSVzzjiVQ9KDu7E-5" value="ENERGY SOURCES" style="rounded=1;whiteSpace=wrap;html=1;" vertex="1" parent="1">
          <mxGeometry x="70" y="170" width="130" height="60" as="geometry" />
        </mxCell>
        <mxCell id="zQuLuvSVzzjiVQ9KDu7E-6" value="ENERGY TYPE" style="rounded=1;whiteSpace=wrap;html=1;" vertex="1" parent="1">
          <mxGeometry x="550" y="150" width="120" height="60" as="geometry" />
        </mxCell>
        <mxCell id="zQuLuvSVzzjiVQ9KDu7E-7" value="ENERGY RELACTION" style="rounded=1;whiteSpace=wrap;html=1;" vertex="1" parent="1">
          <mxGeometry x="360" y="320" width="120" height="60" as="geometry" />
        </mxCell>
        <mxCell id="zQuLuvSVzzjiVQ9KDu7E-38" style="edgeStyle=orthogonalEdgeStyle;rounded=0;orthogonalLoop=1;jettySize=auto;html=1;exitX=0;exitY=0.5;exitDx=0;exitDy=0;entryX=1;entryY=0.75;entryDx=0;entryDy=0;" edge="1" parent="1" source="zQuLuvSVzzjiVQ9KDu7E-8" target="zQuLuvSVzzjiVQ9KDu7E-7">
          <mxGeometry relative="1" as="geometry" />
        </mxCell>
        <mxCell id="zQuLuvSVzzjiVQ9KDu7E-8" value="SUNERSOURCES" style="rounded=1;whiteSpace=wrap;html=1;" vertex="1" parent="1">
          <mxGeometry x="650" y="330" width="120" height="60" as="geometry" />
        </mxCell>
        <mxCell id="zQuLuvSVzzjiVQ9KDu7E-9" value="COST SAVING&amp;nbsp;" style="rounded=1;whiteSpace=wrap;html=1;" vertex="1" parent="1">
          <mxGeometry x="490" y="540" width="120" height="60" as="geometry" />
        </mxCell>
        <mxCell id="zQuLuvSVzzjiVQ9KDu7E-37" style="edgeStyle=orthogonalEdgeStyle;rounded=0;orthogonalLoop=1;jettySize=auto;html=1;entryX=1;entryY=0.5;entryDx=0;entryDy=0;" edge="1" parent="1" source="zQuLuvSVzzjiVQ9KDu7E-10" target="zQuLuvSVzzjiVQ9KDu7E-9">
          <mxGeometry relative="1" as="geometry">
            <mxPoint x="620" y="580" as="targetPoint" />
          </mxGeometry>
        </mxCell>
        <mxCell id="zQuLuvSVzzjiVQ9KDu7E-39" style="edgeStyle=orthogonalEdgeStyle;rounded=0;orthogonalLoop=1;jettySize=auto;html=1;exitX=1;exitY=0.5;exitDx=0;exitDy=0;entryX=1;entryY=0.5;entryDx=0;entryDy=0;" edge="1" parent="1" source="zQuLuvSVzzjiVQ9KDu7E-10" target="zQuLuvSVzzjiVQ9KDu7E-22">
          <mxGeometry relative="1" as="geometry" />
        </mxCell>
        <mxCell id="zQuLuvSVzzjiVQ9KDu7E-10" value="TYPE" style="rounded=1;whiteSpace=wrap;html=1;" vertex="1" parent="1">
          <mxGeometry x="650" y="410" width="120" height="60" as="geometry" />
        </mxCell>
        <mxCell id="zQuLuvSVzzjiVQ9KDu7E-11" value="ENERGY EMISSIONS" style="rounded=1;whiteSpace=wrap;html=1;" vertex="1" parent="1">
          <mxGeometry x="450" y="420" width="120" height="60" as="geometry" />
        </mxCell>
        <mxCell id="zQuLuvSVzzjiVQ9KDu7E-34" style="edgeStyle=orthogonalEdgeStyle;rounded=0;orthogonalLoop=1;jettySize=auto;html=1;entryX=0;entryY=0.75;entryDx=0;entryDy=0;" edge="1" parent="1" source="zQuLuvSVzzjiVQ9KDu7E-12" target="zQuLuvSVzzjiVQ9KDu7E-11">
          <mxGeometry relative="1" as="geometry" />
        </mxCell>
        <mxCell id="zQuLuvSVzzjiVQ9KDu7E-12" value="TYPE" style="rounded=1;whiteSpace=wrap;html=1;" vertex="1" parent="1">
          <mxGeometry x="260" y="440" width="120" height="60" as="geometry" />
        </mxCell>
        <mxCell id="zQuLuvSVzzjiVQ9KDu7E-35" style="edgeStyle=orthogonalEdgeStyle;rounded=0;orthogonalLoop=1;jettySize=auto;html=1;exitX=0.5;exitY=0;exitDx=0;exitDy=0;entryX=0.5;entryY=1;entryDx=0;entryDy=0;" edge="1" parent="1" source="zQuLuvSVzzjiVQ9KDu7E-13" target="zQuLuvSVzzjiVQ9KDu7E-25">
          <mxGeometry relative="1" as="geometry" />
        </mxCell>
        <mxCell id="zQuLuvSVzzjiVQ9KDu7E-13" value="ENERGY" style="rounded=1;whiteSpace=wrap;html=1;" vertex="1" parent="1">
          <mxGeometry x="80" y="420" width="120" height="60" as="geometry" />
        </mxCell>
        <mxCell id="zQuLuvSVzzjiVQ9KDu7E-16" value="" style="edgeStyle=orthogonalEdgeStyle;rounded=0;orthogonalLoop=1;jettySize=auto;html=1;" edge="1" parent="1" source="zQuLuvSVzzjiVQ9KDu7E-14" target="zQuLuvSVzzjiVQ9KDu7E-15">
          <mxGeometry relative="1" as="geometry" />
        </mxCell>
        <mxCell id="zQuLuvSVzzjiVQ9KDu7E-14" value="CONSUMER ID&lt;div&gt;NAME&lt;/div&gt;&lt;div&gt;LOCATION&lt;/div&gt;&lt;div&gt;SECTOR&lt;/div&gt;" style="shape=ext;double=1;rounded=1;whiteSpace=wrap;html=1;" vertex="1" parent="1">
          <mxGeometry x="100" y="30" width="120" height="80" as="geometry" />
        </mxCell>
        <mxCell id="zQuLuvSVzzjiVQ9KDu7E-15" value="NAME&lt;br&gt;&lt;div&gt;NAME&lt;/div&gt;&lt;div&gt;DATE&lt;/div&gt;&lt;div&gt;SECTOR&lt;/div&gt;" style="shape=ext;double=1;rounded=1;whiteSpace=wrap;html=1;" vertex="1" parent="1">
          <mxGeometry x="230" y="30" width="120" height="80" as="geometry" />
        </mxCell>
        <mxCell id="zQuLuvSVzzjiVQ9KDu7E-23" value="" style="edgeStyle=orthogonalEdgeStyle;rounded=0;orthogonalLoop=1;jettySize=auto;html=1;" edge="1" parent="1" source="zQuLuvSVzzjiVQ9KDu7E-20" target="zQuLuvSVzzjiVQ9KDu7E-15">
          <mxGeometry relative="1" as="geometry" />
        </mxCell>
        <mxCell id="zQuLuvSVzzjiVQ9KDu7E-24" value="" style="edgeStyle=orthogonalEdgeStyle;rounded=0;orthogonalLoop=1;jettySize=auto;html=1;" edge="1" parent="1" source="zQuLuvSVzzjiVQ9KDu7E-20" target="zQuLuvSVzzjiVQ9KDu7E-22">
          <mxGeometry relative="1" as="geometry" />
        </mxCell>
        <mxCell id="zQuLuvSVzzjiVQ9KDu7E-20" value="ENERGY ID&lt;div&gt;LOCATION&lt;/div&gt;&lt;div&gt;SECTOR&lt;/div&gt;" style="shape=ext;double=1;rounded=1;whiteSpace=wrap;html=1;" vertex="1" parent="1">
          <mxGeometry x="410" y="50" width="120" height="80" as="geometry" />
        </mxCell>
        <mxCell id="zQuLuvSVzzjiVQ9KDu7E-22" value="USAGE ID&lt;div&gt;LOCATION&amp;nbsp;&lt;/div&gt;&lt;div&gt;PEAKHOURS&lt;/div&gt;" style="shape=ext;double=1;rounded=1;whiteSpace=wrap;html=1;" vertex="1" parent="1">
          <mxGeometry x="570" y="60" width="120" height="80" as="geometry" />
        </mxCell>
        <mxCell id="zQuLuvSVzzjiVQ9KDu7E-25" value="ENERGY USED&lt;div&gt;ENERGY SAVED&lt;/div&gt;&lt;div&gt;ENERGY CONSUMED&lt;/div&gt;&lt;div&gt;PEAK HOURS&lt;/div&gt;" style="shape=ext;double=1;rounded=1;whiteSpace=wrap;html=1;" vertex="1" parent="1">
          <mxGeometry x="70" y="230" width="120" height="80" as="geometry" />
        </mxCell>
        <mxCell id="zQuLuvSVzzjiVQ9KDu7E-27" style="edgeStyle=orthogonalEdgeStyle;rounded=0;orthogonalLoop=1;jettySize=auto;html=1;exitX=0;exitY=0.5;exitDx=0;exitDy=0;entryX=0.694;entryY=1.006;entryDx=0;entryDy=0;entryPerimeter=0;" edge="1" parent="1" source="zQuLuvSVzzjiVQ9KDu7E-11" target="zQuLuvSVzzjiVQ9KDu7E-7">
          <mxGeometry relative="1" as="geometry" />
        </mxCell>
        <mxCell id="zQuLuvSVzzjiVQ9KDu7E-28" value="ENERGY SAVED&lt;div&gt;CO2NREDUCED&lt;/div&gt;&lt;div&gt;COST SAVINGS&lt;/div&gt;" style="shape=ext;double=1;rounded=1;whiteSpace=wrap;html=1;" vertex="1" parent="1">
          <mxGeometry x="550" y="210" width="120" height="80" as="geometry" />
        </mxCell>
        <mxCell id="zQuLuvSVzzjiVQ9KDu7E-29" style="edgeStyle=orthogonalEdgeStyle;rounded=0;orthogonalLoop=1;jettySize=auto;html=1;entryX=0.911;entryY=1.029;entryDx=0;entryDy=0;entryPerimeter=0;" edge="1" parent="1" source="zQuLuvSVzzjiVQ9KDu7E-7" target="zQuLuvSVzzjiVQ9KDu7E-14">
          <mxGeometry relative="1" as="geometry" />
        </mxCell>
        <mxCell id="zQuLuvSVzzjiVQ9KDu7E-36" style="edgeStyle=orthogonalEdgeStyle;rounded=0;orthogonalLoop=1;jettySize=auto;html=1;entryX=0.5;entryY=1;entryDx=0;entryDy=0;" edge="1" parent="1" source="zQuLuvSVzzjiVQ9KDu7E-31" target="zQuLuvSVzzjiVQ9KDu7E-9">
          <mxGeometry relative="1" as="geometry">
            <mxPoint x="220" y="821" as="targetPoint" />
          </mxGeometry>
        </mxCell>
        <mxCell id="zQuLuvSVzzjiVQ9KDu7E-31" value="RATE&lt;div&gt;DATE&lt;/div&gt;&lt;div&gt;TOTAL COST&lt;/div&gt;" style="shape=ext;double=1;rounded=1;whiteSpace=wrap;html=1;" vertex="1" parent="1">
          <mxGeometry x="80" y="480" width="120" height="110" as="geometry" />
        </mxCell>
        <mxCell id="zQuLuvSVzzjiVQ9KDu7E-33" style="edgeStyle=orthogonalEdgeStyle;rounded=0;orthogonalLoop=1;jettySize=auto;html=1;entryX=0;entryY=0.75;entryDx=0;entryDy=0;" edge="1" parent="1" source="zQuLuvSVzzjiVQ9KDu7E-32" target="zQuLuvSVzzjiVQ9KDu7E-9">
          <mxGeometry relative="1" as="geometry" />
        </mxCell>
        <mxCell id="zQuLuvSVzzjiVQ9KDu7E-32" value="ENERGY&lt;div&gt;SENERGY&lt;/div&gt;&lt;div&gt;SOURCE&lt;/div&gt;" style="shape=ext;double=1;rounded=1;whiteSpace=wrap;html=1;" vertex="1" parent="1">
          <mxGeometry x="260" y="500" width="120" height="80" as="geometry" />
        </mxCell>
      </root>
    </mxGraphModel>
  </diagram>
</mxfile>
